<svg width="16" height="4" viewBox="0 0 16 4" fill="none" xmlns="http://www.w3.org/2000/svg">
<g id="Vector">
<path d="M2 0C0.9 0 0 0.899976 0 1.99995C0 3.09992 0.9 3.9999 2 3.9999C3.1 3.9999 4 3.09992 4 1.99995C4 0.899976 3.1 0 2 0ZM14 0C12.9 0 12 0.899976 12 1.99995C12 3.09992 12.9 3.9999 14 3.9999C15.1 3.9999 16 3.09992 16 1.99995C16 0.899976 15.1 0 14 0ZM8 0C6.9 0 6 0.899976 6 1.99995C6 3.09992 6.9 3.9999 8 3.9999C9.1 3.9999 10 3.09992 10 1.99995C10 0.899976 9.1 0 8 0Z" fill="white"/>
<path d="M2 0C0.9 0 0 0.899976 0 1.99995C0 3.09992 0.9 3.9999 2 3.9999C3.1 3.9999 4 3.09992 4 1.99995C4 0.899976 3.1 0 2 0ZM14 0C12.9 0 12 0.899976 12 1.99995C12 3.09992 12.9 3.9999 14 3.9999C15.1 3.9999 16 3.09992 16 1.99995C16 0.899976 15.1 0 14 0ZM8 0C6.9 0 6 0.899976 6 1.99995C6 3.09992 6.9 3.9999 8 3.9999C9.1 3.9999 10 3.09992 10 1.99995C10 0.899976 9.1 0 8 0Z" fill="black" fill-opacity="0.84"/>
</g>
</svg>
